<svg xmlns="http://www.w3.org/2000/svg" shape-rendering="geometricPrecision" text-rendering="geometricPrecision" image-rendering="optimizeQuality" fill-rule="evenodd" clip-rule="evenodd" viewBox="0 0 507 512.33"><g fill-rule="nonzero"><path fill="#F6E458" d="M0 58.7C0 26.28 26.28 0 58.71 0h389.58C480.72 0 507 26.28 507 58.7v394.93c0 32.42-26.28 58.7-58.71 58.7H58.71C26.28 512.33 0 486.05 0 453.63V58.7z"/><path d="M324.91 114.52c-27.98-8.04-56.51-9.13-85.58-6.52-16.27 1.68-31.92 4.91-47.01 10.58-32.61 12.25-57.09 33.46-71.69 65.41-10.47 22.9-14.25 47.23-14.65 72.19-.42 26.38 2.89 52.4 8.14 78.19 4.76 23.38 11.11 46.29 20.16 68.42.86 2.1 1.93 2.81 4.23 2.8 28.64-.05 57.28-.05 85.92-.05 8.48 0 16.95 0 25.44-.01.65 0 1.3-.04 2.04-.08.38-.01.79-.04 1.23-.06-.17-.4-.32-.78-.47-1.14-.28-.69-.53-1.3-.8-1.88-2.07-4.44-4.19-8.84-6.31-13.25-4.58-9.58-9.16-19.15-13.31-28.9-12.58-29.59-22.21-60.06-25.15-92.31-1.3-14.23-1.11-28.37 2.83-42.24 4.52-15.85 14.2-27.04 30.25-31.71 14.75-4.3 29.7-4.27 44.35.47 13.09 4.23 21.63 13.17 25.26 26.56 2.78 10.27 2.78 20.66.67 31.02-1.62 7.98-4.89 15.26-10.77 21.09-10.56 10.45-23.74 12.85-37.88 12.05-2.52-.14-5.03-.42-7.61-.71-1.21-.13-2.44-.26-3.69-.39.04.41.05.77.08 1.12.03.68.06 1.26.2 1.83.6 2.42 1.18 4.85 1.75 7.28 1.39 5.86 2.77 11.72 4.55 17.45 3.49 11.27 7.55 22.25 12.16 32.98 32.82-2.56 63.06-10.72 95.15-29.98.48-.3.92-.58 1.36-.85 13.79-8.59 24.94-19.72 32.64-34.09 12.46-23.28 14.89-48.17 11.18-73.87-3.82-26.52-15.72-48.78-36.2-66.24-14.21-12.11-30.64-20.04-48.47-25.16z"/></g></svg>